HIERARCHY
ROOT Hips
{
	OFFSET 0.000000 0.000000 0.000000
	CHANNELS 6 Xposition Yposition Zposition Zrotation Yrotation Xrotation 
	JOINT LHipJoint
	{
		OFFSET 0.000000 0.000000 0.000000
		CHANNELS 3 Zrotation Yrotation Xrotation
		JOINT LeftUpLeg
		{
			OFFSET 1.363060 -1.794630 0.839290
			CHANNELS 3 Zrotation Yrotation Xrotation
			JOINT LeftLeg
			{
				OFFSET 2.448110 -6.726130 0.000000
				CHANNELS 3 Zrotation Yrotation Xrotation
				JOINT LeftFoot
				{
					OFFSET 2.562200 -7.039590 0.000000
					CHANNELS 3 Zrotation Yrotation Xrotation
					JOINT LeftToeBase
					{
						OFFSET 0.157640 -0.433110 2.322550
						CHANNELS 3 Zrotation Yrotation Xrotation
						End Site
						{
							OFFSET 0.000000 0.000000 0.000000
						}
					}
				}
			}
		}
	}
	JOINT RHipJoint
	{
		OFFSET 0.000000 0.000000 0.000000
		CHANNELS 3 Zrotation Yrotation Xrotation
		JOINT RightUpLeg
		{
			OFFSET -1.305520 -1.794630 0.839290
			CHANNELS 3 Zrotation Yrotation Xrotation
			JOINT RightLeg
			{
				OFFSET -2.542530 -6.985550 0.000000
				CHANNELS 3 Zrotation Yrotation Xrotation
				JOINT RightFoot
				{
					OFFSET -2.568260 -7.056230 0.000000
					CHANNELS 3 Zrotation Yrotation Xrotation
					JOINT RightToeBase
					{
						OFFSET -0.164730 -0.452590 2.363150
						CHANNELS 3 Zrotation Yrotation Xrotation
						End Site
						{
							OFFSET 0.000000 0.000000 0.000000
						}
					}
				}
			}
		}
	}
}
MOTION
Frames: 28
Frame Time: 0.008333
0.075743 17.168717 -0.543232 158.366292 -82.619070 -149.147923 -10.324310 -0.510929 1.570804 -9.350317 0.006141 -47.718271 -0.053852 2.823505 54.484055 2.646086 14.723805 -6.946065 0.459500 -0.000001 -33.474700 9.186560 -2.242374 -0.021080 8.636402 -5.309256 -6.120591 2.386137 -0.460745 17.068125 -0.479957 0.082354 -9.139825 0.013001 0.000000 -70.513000
-0.005264 17.200477 -0.563741 159.151983 -82.249359 -149.890018 -10.229613 -0.520125 1.567608 -9.509839 0.366920 -47.926612 -0.203060 2.716266 52.390296 2.582761 14.304856 -6.361401 0.612900 0.000000 -33.967801 9.225371 -2.278552 -0.053689 8.406538 -5.561696 -5.268652 2.413748 -0.371318 15.662710 -0.338868 0.637379 -8.082824 -0.023000 0.000000 -70.651000
-0.087664 17.227599 -0.582914 160.109138 -81.841748 -150.798083 -10.138096 -0.521572 1.565681 -9.658564 0.768642 -48.083400 -0.366469 2.603408 50.212463 2.514684 13.847103 -5.909350 0.724301 0.000000 -34.360199 9.260560 -2.314126 -0.067167 8.189405 -5.721444 -4.432393 2.438799 -0.285181 14.325618 -0.209627 1.167264 -7.106705 -0.038500 -0.000001 -70.762200
-0.171734 17.250158 -0.600727 161.209738 -81.403102 -151.838464 -10.050927 -0.517799 1.569957 -9.789810 1.201766 -48.209410 -0.541052 2.484622 47.968910 2.442063 13.354272 -5.560036 0.803200 -0.000000 -34.693701 9.289249 -2.350128 -0.059326 7.997496 -5.786675 -3.618369 2.462091 -0.200943 13.053067 -0.093641 1.658907 -6.216911 -0.037700 0.000001 -70.866300
-0.257791 17.268379 -0.617170 162.408325 -80.944582 -152.960595 -9.969276 -0.511137 1.585871 -9.898558 1.650680 -48.322516 -0.722191 2.359414 45.678859 2.365596 12.836727 -5.264769 0.863400 0.000000 -35.022499 9.309979 -2.387927 -0.030531 7.838498 -5.769649 -2.832200 2.484596 -0.117497 11.837812 0.009310 2.105736 -5.408384 -0.024801 -0.000000 -71.012300
-0.345940 17.282361 -0.632207 163.670369 -80.479177 -154.129375 -9.894717 -0.503844 1.616058 -9.979469 2.101187 -48.436619 -0.904800 2.228448 43.366645 2.285637 12.304875 -4.974176 0.917100 0.000000 -35.383801 9.321355 -2.427508 0.014986 7.718635 -5.690093 -2.070966 2.507797 -0.033510 10.668403 0.100252 2.506900 -4.677267 -0.003600 0.000000 -71.175900
-0.436200 17.292511 -0.646075 164.919502 -80.022481 -155.271452 -9.827668 -0.496903 1.664335 -10.035500 2.530408 -48.553358 -1.083347 2.091033 41.047670 2.203582 11.778134 -4.635651 0.977000 0.000000 -35.828100 9.325986 -2.470080 0.071715 7.630160 -5.584024 -1.334667 2.532230 0.050893 9.535331 0.181949 2.871986 -4.005591 0.023500 0.000001 -71.422200
-0.528377 17.298959 -0.658795 166.115530 -79.588639 -156.353152 -9.768940 -0.491127 1.730889 -10.066771 2.920775 -48.670043 -1.253319 1.947958 38.739874 2.120169 11.270308 -4.214696 1.050000 0.000000 -36.375500 9.325585 -2.514860 0.131172 7.566545 -5.486351 -0.616552 2.558768 0.135708 8.429509 0.257182 3.214579 -3.382033 0.055700 0.000000 -71.727799
-0.622368 17.301866 -0.670577 167.217557 -79.190351 -157.339471 -9.718721 -0.486187 1.815453 -10.077138 3.255645 -48.776767 -1.411461 1.799670 36.455959 2.036384 10.794049 -3.693358 1.138900 0.000000 -37.034900 9.323272 -2.561561 0.185328 7.515268 -5.433057 0.089301 2.587732 0.220279 7.346676 0.328988 3.553042 -2.795935 0.093300 -0.000000 -72.073700
-0.717808 17.301308 -0.681569 168.193977 -78.836153 -158.208200 -9.676708 -0.481678 1.915943 -10.070450 3.523604 -48.858171 -1.556134 1.646551 34.203708 1.953107 10.357944 -3.071871 1.242701 0.000000 -37.797201 9.322363 -2.609259 0.226267 7.462421 -5.455133 0.787812 2.619044 0.303273 6.288881 0.400223 3.907999 -2.240389 0.137900 0.000000 -72.437199
-0.814649 17.297267 -0.691787 169.054156 -78.531970 -158.971865 -9.642731 -0.477194 2.029290 -10.046848 3.720986 -48.903936 -1.687180 1.489795 31.992086 1.870584 9.961274 -2.368506 1.356701 0.000000 -38.634500 9.323931 -2.656847 0.248490 7.402134 -5.568191 1.485479 2.652713 0.384119 5.256381 0.472316 4.291193 -1.711113 0.190600 0.000000 -72.789500
-0.912537 17.289710 -0.701356 169.788379 -78.275645 -159.628421 -9.615582 -0.472172 2.151940 -10.011404 3.850239 -48.898036 -1.806037 1.329246 29.820322 1.789438 9.603475 -1.612400 1.474700 -0.000000 -39.507500 9.330452 -2.703515 0.248646 7.322117 -5.782435 2.181277 2.688043 0.460868 4.264417 0.546722 4.719130 -1.212359 0.253400 0.000000 -73.105600
-1.011454 17.278546 -0.710254 170.425232 -78.062550 -160.206700 -9.594480 -0.466487 2.280064 -9.964494 3.922432 -48.835107 -1.914903 1.165659 27.692140 1.709479 9.275245 -0.841517 1.589000 0.000000 -40.363100 9.341453 -2.748491 0.226767 7.221148 -6.089924 2.874990 2.724609 0.532691 3.324819 0.623144 5.194842 -0.750442 0.326201 -0.000000 -73.370400
-1.111428 17.263757 -0.718467 170.999866 -77.881736 -160.740497 -9.578418 -0.460349 2.409221 -9.907602 3.955551 -48.713190 -2.016443 0.999605 25.610634 1.630591 8.966472 -0.096296 1.691699 -0.000000 -41.135000 9.355735 -2.791164 0.185556 7.100518 -6.470020 3.563591 2.761725 0.598574 2.454112 0.700518 5.715322 -0.334588 0.408100 0.000000 -73.573300
-1.212668 17.245179 -0.725916 171.557676 -77.724022 -161.269125 -9.566705 -0.453780 2.537602 -9.841095 3.968040 -48.545747 -2.112996 0.832247 23.582082 1.552384 8.664796 0.590507 1.776500 0.000000 -41.791800 9.370340 -2.831037 0.130550 6.969099 -6.897450 4.241352 2.799429 0.659473 1.657825 0.777168 6.269466 0.026044 0.496200 0.000000 -73.742300
-1.315178 17.222957 -0.732454 172.141471 -77.572008 -161.833803 -9.558482 -0.448053 2.658537 -9.767591 3.989323 -48.339121 -2.206662 0.664959 21.619841 1.474530 8.358896 1.184148 1.836800 0.000000 -42.254000 9.382872 -2.867742 0.067204 6.833457 -7.334142 4.906081 2.836603 0.714063 0.955485 0.850985 6.841236 0.321796 0.586400 -0.000000 -73.875699
-1.419325 17.197174 -0.738055 172.784270 -77.417210 -162.458033 -9.553074 -0.443279 2.771969 -9.688839 4.033715 -48.116759 -2.298136 0.499228 19.735647 1.397501 8.043855 1.671175 1.871200 -0.000000 -42.522600 9.390489 -2.901257 0.002453 6.704924 -7.753212 5.549290 2.873401 0.763879 0.346469 0.920389 7.413810 0.547456 0.674201 -0.000000 -74.015000
-1.525321 17.168057 -0.742671 173.510996 -77.249310 -163.161401 -9.549796 -0.440296 2.874484 -9.608456 4.119422 -47.896894 -2.387499 0.337264 17.950173 1.321806 7.716436 2.041162 1.878999 0.000000 -42.589700 9.391366 -2.931674 -0.058273 6.591566 -8.126014 6.167526 2.909317 0.809054 -0.165370 0.983972 7.969816 0.700708 0.755200 0.000000 -74.187100
-1.633427 17.135941 -0.746414 174.309343 -77.066241 -163.925224 -9.547612 -0.439407 2.967354 -9.528476 4.242279 -47.693403 -2.473051 0.180048 16.274672 1.250122 7.390455 2.301168 1.866200 -0.000001 -42.498800 9.386103 -2.959341 -0.112008 6.493635 -8.442851 6.752313 2.944025 0.849687 -0.579728 1.041493 8.502335 0.782107 0.826600 0.000000 -74.432600
-1.743668 17.101198 -0.749191 175.200692 -76.862674 -164.771084 -9.546424 -0.441648 3.044550 -9.453472 4.422723 -47.528271 -2.554537 0.032786 14.753274 1.181468 7.054409 2.444743 1.830800 0.000000 -42.267800 9.373002 -2.984703 -0.155054 6.421446 -8.680257 7.310897 2.977149 0.886129 -0.905187 1.091914 8.992566 0.799081 0.885099 0.000000 -74.748400
-1.856126 17.064228 -0.750999 176.173956 -76.642102 -165.686846 -9.545724 -0.447144 3.105459 -9.386180 4.657962 -47.417541 -2.630862 -0.100799 13.418279 1.116547 6.709670 2.475426 1.775400 0.000000 -41.945100 9.352630 -3.008483 -0.185939 6.376995 -8.834986 7.844105 3.008701 0.918782 -1.152056 1.135473 9.435458 0.759747 0.930100 0.000000 -75.128000
-1.971002 17.025650 -0.752465 177.117032 -76.421043 -166.555852 -9.543877 -0.455247 3.163319 -9.314501 4.874766 -47.333343 -2.695556 -0.225554 12.233698 1.065550 6.426659 2.430309 1.722100 0.000001 -41.645700 9.332812 -3.031044 -0.211254 6.329575 -8.947488 8.333596 3.037762 0.945590 -1.315789 1.174724 9.859447 0.670178 0.965000 0.000000 -75.625000
-2.088076 16.985733 -0.753290 178.074202 -76.199957 -167.430134 -9.541912 -0.466155 3.209462 -9.242688 5.102046 -47.296774 -2.750633 -0.333117 11.265290 1.023467 6.166692 2.287326 1.660200 -0.000001 -41.352900 9.310355 -3.053148 -0.228286 6.294619 -8.999769 8.799328 3.064732 0.967677 -1.416463 1.209115 10.249441 0.544503 0.989300 0.000000 -76.154400
-2.207478 16.944895 -0.753610 179.013237 -75.988936 -168.278637 -9.539850 -0.478840 3.247222 -9.165576 5.314139 -47.294416 -2.794566 -0.422848 10.516283 0.992212 5.942463 2.053485 1.594000 0.000000 -41.100900 9.287732 -3.075572 -0.239655 6.261717 -9.008399 9.243205 3.089421 0.984506 -1.461324 1.239978 10.617366 0.393727 1.005700 0.000000 -76.682000
-2.329224 16.903691 -0.753922 179.839064 -75.803085 -169.007980 -9.537503 -0.491716 3.289395 -9.064242 5.438513 -47.273314 -2.821125 -0.501541 9.926701 0.980805 5.818928 1.763383 1.541800 0.000000 -40.955400 9.271779 -3.098125 -0.253700 6.197611 -9.016973 9.653165 3.110707 0.993628 -1.443521 1.269969 10.997020 0.226960 1.019000 0.000000 -77.245900
-2.453258 16.862168 -0.753863 -179.387612 -75.640686 -169.687761 -9.536235 -0.503680 3.326215 -8.949868 5.518767 -47.246853 -2.835624 -0.562432 9.541511 0.980055 5.734163 1.398706 1.487100 -0.000000 -40.867500 9.258279 -3.122072 -0.266377 6.120430 -9.007761 10.050845 3.129264 0.996369 -1.381631 1.298603 11.374797 0.058968 1.029501 0.000000 -77.753301
-2.579821 16.820683 -0.753566 -178.697807 -75.507141 -170.288018 -9.536752 -0.512772 3.362608 -8.816565 5.529761 -47.179971 -2.836624 -0.609527 9.316154 0.991454 5.705395 0.987077 1.436099 0.000000 -40.850901 9.249495 -3.147996 -0.280001 6.017119 -8.996445 10.434715 3.144423 0.991635 -1.275244 1.326928 11.762858 -0.099399 1.040200 0.000000 -78.198500
-2.709115 16.779376 -0.752908 -178.073631 -75.401673 -170.830249 -9.540180 -0.517003 3.396552 -8.671558 5.487012 -47.062979 -2.826918 -0.642750 9.236314 1.010029 5.707589 0.545005 1.385000 -0.000000 -40.883800 9.244247 -3.177230 -0.292961 5.891470 -8.983408 10.810853 3.156245 0.979391 -1.129568 1.355061 12.158946 -0.234782 1.053200 -0.000001 -78.591700
